<svg xmlns="http://www.w3.org/2000/svg" width="112" height="107" viewBox="0 0 112 107">
    <path fill="#BCBCBC" fill-rule="evenodd" d="M14.928 10h82.138a3.5 3.5 0 0 1 0 7H14.928a3.5 3.5 0 0 1 0-7zm-1.143 26h72.996a3.5 3.5 0 0 1 0 7H13.785a3.5 3.5 0 0 1 0-7zm0 27h51.283a3.5 3.5 0 1 1 0 7H13.785a3.5 3.5 0 0 1 0-7zm0 27h83.281a3.5 3.5 0 0 1 0 7h-83.28a3.5 3.5 0 0 1 0-7zM.571 27H0v-1h110.857v1H.571zM1.714 1h-.571V0H112v1H1.714zM.571 53H0v-1h110.857v1H.571zm0 27H0v-1h110.857v1H.571zm1.143 27h-.571v-1H112v1H1.714z"/>
</svg>
