<svg xmlns="http://www.w3.org/2000/svg" width="100" height="74" viewBox="0 0 100 74">
    <g fill="none" fill-rule="evenodd">
        <rect width="100" height="40" fill="#E9E9E9" rx="20"/>
        <path fill="gray" fill-rule="nonzero" d="M41.222 33V21.199c0-4.354 3.485-7.888 7.778-7.888 4.293 0 7.778 3.534 7.778 7.888V33A14.208 14.208 0 0 0 63 21.199C63 13.342 56.747 7 49 7s-14 6.342-14 14.199c0 4.922 2.458 9.245 6.222 11.801zm30.866 14.803L57.56 40.521a4.48 4.48 0 0 0-1.728-.354H53.4V20.833C53.4 18.16 51.256 16 48.6 16c-2.656 0-4.8 2.159-4.8 4.833V55.44l-10.976-2.32c-.256-.032-.48-.097-.768-.097-.992 0-1.888.42-2.528 1.064L27 56.664l15.808 15.918A4.8 4.8 0 0 0 46.2 74h21.728c2.4 0 4.256-1.772 4.608-4.124l2.4-16.982c.032-.225.064-.45.064-.644 0-1.998-1.216-3.738-2.912-4.447z"/>
    </g>
</svg>
