<svg xmlns="http://www.w3.org/2000/svg" width="181" height="46" viewBox="0 0 181 46">
    <g fill="none" fill-rule="evenodd">
        <path fill="#00B8F0" d="M11.39 37.286V25H14v12.286C14 41.363 10.778 44 7 44s-7-2.637-7-6.714V25h2.612v12.286c0 2.58 2.028 4.267 4.389 4.267 2.36 0 4.389-1.686 4.389-4.267M18.4 44H16V30.294h2.4v2.055C19.14 30.703 20.907 30 22.254 30 25.313 30 27 32.23 27 36.076V44h-2.4v-7.748c0-2.289-1.03-3.64-2.717-3.64-1.742 0-3.482 1.088-3.482 3.992V44zM29.422 33.421C29.618 31.466 31.648 30 33.986 30c2.226 0 4.34 1.063 4.565 3.794h-2.453c-.14-1.006-1.04-1.523-2.055-1.523-.959 0-1.777.49-1.973 1.208-.111.43-.111.747.027 1.063.255.545.875.835 1.55 1.035l1.945.488c2.733.69 3.408 2.386 3.408 3.909C39 42.475 36.634 44 33.9 44c-2.365 0-4.818-1.553-4.9-4.314h2.337c.085.576.45 1.208 1.07 1.526.565.345 1.24.517 2.087.458 1.182-.086 1.971-.776 1.998-1.753.03-.976-.787-1.466-1.746-1.696l-1.803-.43c-2.394-.661-3.747-1.897-3.521-4.37M49.594 30H52v13.705h-2.406V41.65C48.853 43.295 47.109 44 45.76 44c-3.094 0-4.785-2.231-4.76-6.077V30h2.407v7.747c0 2.29 1.005 3.64 2.696 3.64 1.746 0 3.49-1.056 3.49-3.992V30zM61.54 41.687c2.224 0 3.997-1.664 3.997-4.055 0-2.417-1.773-3.977-3.997-3.977-1.987 0-4.103 1.378-4.103 3.977 0 2.573 1.905 4.055 4.103 4.055zm-4.13 2.053H55V25h2.41v8.421c.82-1.377 2.54-2.08 4.342-2.08 3.415 0 6.248 2.444 6.248 6.316C68 41.505 65.114 44 61.725 44c-1.721 0-3.495-.755-4.315-2.132v1.872z"/>
        <path fill="#F27573" d="M70.422 33.421C70.618 31.466 72.647 30 74.985 30c2.226 0 4.339 1.063 4.564 3.794h-2.453c-.138-1.006-1.04-1.523-2.054-1.523-.958 0-1.775.49-1.971 1.208-.113.43-.113.747.027 1.063.253.545.873.835 1.55 1.035l1.943.488c2.733.69 3.409 2.386 3.409 3.909C80 42.475 77.633 44 74.902 44c-2.367 0-4.818-1.553-4.902-4.314h2.336c.086.576.451 1.208 1.073 1.526.562.345 1.238.517 2.084.458 1.182-.086 1.972-.776 2-1.753.027-.976-.79-1.466-1.748-1.696l-1.801-.43c-2.395-.661-3.748-1.897-3.522-4.37M88.348 30c1.824 0 3.494.776 4.625 2.156L91.2 33.822a3.809 3.809 0 0 0-2.852-1.263c-2.158 0-4.034 1.696-4.034 4.4 0 2.7 1.876 4.512 4.034 4.512 1.106 0 2.133-.49 2.852-1.323l1.8 1.668A5.957 5.957 0 0 1 88.348 44C84.929 44 82 41.211 82 36.958 82 32.704 84.93 30 88.348 30M98.712 44H96V30.294h2.712v3.08c.715-2.406 2.055-3.374 3.873-3.374.982 0 2.025.265 2.415.529l-.42 2.495a4.894 4.894 0 0 0-2.055-.47c-2.683 0-3.813 2.817-3.813 6.456V44zM115.594 30H118v13.705h-2.406V41.65c-.741 1.644-2.487 2.349-3.834 2.349-3.094 0-4.785-2.231-4.76-6.077V30h2.407v7.747c0 2.29 1.003 3.64 2.696 3.64 1.746 0 3.49-1.056 3.49-3.992V30zM126.54 41.687c2.224 0 4-1.664 4-4.055 0-2.417-1.776-3.977-4-3.977-1.986 0-4.105 1.378-4.105 3.977 0 2.573 1.907 4.055 4.105 4.055zm-4.13 2.053H120V25h2.41v8.421c.82-1.377 2.54-2.08 4.342-2.08 3.416 0 6.248 2.444 6.248 6.316 0 3.848-2.885 6.343-6.275 6.343-1.721 0-3.495-.755-4.315-2.132v1.872z"/>
        <g>
            <path fill="#00B8F0" d="M168.727 28.294l-16.504 15.982-5.22.173-9.158-9.096-.822-4.88 17.056-17.035z"/>
            <path fill="#F27573" d="M179.977 16.127l-11.874 12.3-14.717-14.577 11.873-12.3h4.386l9.478 9.76z"/>
            <path fill="#020303" d="M153.327 12.404a.968.968 0 0 0-.963.972.98.98 0 0 0 .293.7l14.412 14.57c.37.386.979.398 1.361.028a.98.98 0 0 0 .03-1.375l-.03-.03-14.412-14.568a.959.959 0 0 0-.691-.297"/>
            <path fill="#020303" d="M140.16 28.303c-.04 1.736.55 3.481 1.832 4.802l6.508 6.716c1.283 1.32 2.975 1.93 4.657 1.888l-.147.152c-2.091 2.155-5.142 2.291-6.882.495l-6.597-6.803c-1.738-1.795-1.606-4.944.485-7.1l.144-.15zm27.41-26.411c1.171 0 2.341.467 3.247 1.4l6.583 6.795a4.807 4.807 0 0 1 0 6.7c-7.105 7.18-14.132 14.401-21.198 21.69a4.491 4.491 0 0 1-2.214 1.258c-1.42.263-2.935-.173-4.046-1.32l-6.589-6.795a4.802 4.802 0 0 1-1.28-4.18 4.715 4.715 0 0 1 1.218-2.282c7.173-7.134 14.025-14.64 21.03-21.865a4.507 4.507 0 0 1 3.248-1.401zm0-1.88a6.312 6.312 0 0 0-4.547 1.94c-8.05 8.184-16.568 17.193-24.308 25.162-2.708 2.793-3.007 7.174-.482 9.779l6.596 6.801c2.525 2.607 6.77 2.3 9.48-.495 8.05-8.168 16.254-16.678 24.394-25.073 2.506-2.586 2.506-6.793 0-9.379l-6.59-6.794a6.3 6.3 0 0 0-4.544-1.94z"/>
        </g>
    </g>
</svg>
